<?xml version="1.0" standalone="no"?><!DOCTYPE svg PUBLIC "-//W3C//DTD SVG 1.1//EN" "http://www.w3.org/Graphics/SVG/1.1/DTD/svg11.dtd"><svg t="1771738624463" class="icon" viewBox="0 0 1024 1024" version="1.1" xmlns="http://www.w3.org/2000/svg" p-id="13445" xmlns:xlink="http://www.w3.org/1999/xlink" width="200" height="200"><path d="M736 928H288c-105.6 0-192-86.4-192-192V288c0-105.6 86.4-192 192-192h448c105.6 0 192 86.4 192 192v448c0 105.6-86.4 192-192 192z" fill="#92C8FF" p-id="13446"></path><path d="M512 512m-96 0a96 96 0 1 0 192 0 96 96 0 1 0-192 0Z" fill="#409EFF" p-id="13447"></path><path d="M512 512m-32 0a32 32 0 1 0 64 0 32 32 0 1 0-64 0Z" fill="#92C8FF" p-id="13448"></path><path d="M512 480c-17.6 0-32-14.4-32-32V224c0-17.6 14.4-32 32-32s32 14.4 32 32v224c0 17.6-14.4 32-32 32zM536.304 536.304c12.445-12.445 32.81-12.445 45.255 0l113.137 113.137c12.445 12.445 12.445 32.81 0 45.255s-32.81 12.445-45.255 0L536.304 581.559c-12.445-12.445-12.445-32.81 0-45.255z" fill="#409EFF" p-id="13449"></path></svg>