<?xml version="1.0" standalone="no"?><!DOCTYPE svg PUBLIC "-//W3C//DTD SVG 1.1//EN" "http://www.w3.org/Graphics/SVG/1.1/DTD/svg11.dtd"><svg t="1771738385521" class="icon" viewBox="0 0 1125 1024" version="1.1" xmlns="http://www.w3.org/2000/svg" p-id="6476" xmlns:xlink="http://www.w3.org/1999/xlink" width="219.7265625" height="200"><path d="M921.063874 819.736126c-20.908901 0-37.528796 16.619895-37.528795 37.528795s16.619895 37.528796 37.528795 37.528796 37.528796-16.619895 37.528796-37.528796-16.619895-37.528796-37.528796-37.528795z m139.928796-8.578011L936.075393 116.875393c-6.969634-44.498429-44.498429-75.057592-90.06911-76.129843H260.020942c-47.179058 1.608377-84.707853 33.239791-90.06911 79.346597l-124.917277 691.602094c-4.289005 13.939267-8.57801 28.950785-8.57801 46.106806 0 82.027225 66.479581 127.597906 147.434554 127.597906H922.136126c82.027225 0 147.434555-46.106806 147.434555-127.597906 0-17.156021-2.680628-32.703665-8.578011-46.642932zM456.779058 386.010471c0-61.118325 33.239791-110.97801 94.358115-110.97801s86.31623 58.437696 86.31623 119.556021c40.209424 0 98.64712 21.981152 98.647121 62.726701s-33.239791 69.696335-73.449215 69.696335H441.767539c-40.209424 0-73.449215-28.950785-73.449214-69.696335 0-41.817801 48.251309-71.304712 88.460733-71.304712z m469.646073 555.962304h-766.659686c-40.209424 0-73.449215-48.787435-76.129843-79.346597 0-40.209424 25.197906-101.327749 65.40733-101.327749l768.268063 1.608377c40.209424 0 94.358115 21.981152 93.285864 108.297382-6.433508 50.931937-43.962304 70.768586-84.171728 70.768587z" fill="#5FADE0" p-id="6477"></path></svg>