<?xml version="1.0" standalone="no"?><!DOCTYPE svg PUBLIC "-//W3C//DTD SVG 1.1//EN" "http://www.w3.org/Graphics/SVG/1.1/DTD/svg11.dtd"><svg t="1771544726312" class="icon" viewBox="0 0 1024 1024" version="1.1" xmlns="http://www.w3.org/2000/svg" p-id="14292" xmlns:xlink="http://www.w3.org/1999/xlink" width="200" height="200"><path d="M947.2 903.68H76.8c-36.864 0-66.56-29.696-66.56-66.56v-97.792c0-36.864 29.696-66.56 66.56-66.56h870.4c36.864 0 66.56 29.696 66.56 66.56v97.792c0 36.864-29.696 66.56-66.56 66.56zM76.8 719.872c-10.752 0-19.968 8.704-19.968 19.968v97.792c0 10.752 8.704 19.968 19.968 19.968h870.4c10.752 0 19.968-8.704 19.968-19.968v-97.792c0-10.752-8.704-19.968-19.968-19.968H76.8z" fill="#333333" p-id="14293"></path><path d="M134.144 788.48m-17.92 0a17.92 17.92 0 1 0 35.84 0 17.92 17.92 0 1 0-35.84 0Z" fill="#6462F3" p-id="14294"></path><path d="M188.416 788.48m-17.92 0a17.92 17.92 0 1 0 35.84 0 17.92 17.92 0 1 0-35.84 0Z" fill="#6462F3" p-id="14295"></path><path d="M242.688 788.48m-17.92 0a17.92 17.92 0 1 0 35.84 0 17.92 17.92 0 1 0-35.84 0Z" fill="#6462F3" p-id="14296"></path><path d="M671.232 788.48h226.816" fill="#EFEFFD" p-id="14297"></path><path d="M898.048 811.52h-226.816c-12.8 0-23.552-10.24-23.552-23.552 0-12.8 10.24-23.552 23.552-23.552h226.816c12.8 0 23.552 10.24 23.552 23.552 0 13.312-10.24 23.552-23.552 23.552z" fill="#333333" p-id="14298"></path><path d="M947.2 620.544H76.8c-36.864 0-66.56-29.696-66.56-66.56V456.192c0-36.864 29.696-66.56 66.56-66.56h870.4c36.864 0 66.56 29.696 66.56 66.56v97.792c0 36.352-29.696 66.56-66.56 66.56z m-870.4-184.32c-10.752 0-19.968 8.704-19.968 19.968v97.792c0 10.752 8.704 19.968 19.968 19.968h870.4c10.752 0 19.968-8.704 19.968-19.968V456.192c0-10.752-8.704-19.968-19.968-19.968H76.8z" fill="#6462F3" p-id="14299"></path><path d="M134.144 504.832m-17.92 0a17.92 17.92 0 1 0 35.84 0 17.92 17.92 0 1 0-35.84 0Z" fill="#6462F3" p-id="14300"></path><path d="M188.416 504.832m-17.92 0a17.92 17.92 0 1 0 35.84 0 17.92 17.92 0 1 0-35.84 0Z" fill="#6462F3" p-id="14301"></path><path d="M242.688 504.832m-17.92 0a17.92 17.92 0 1 0 35.84 0 17.92 17.92 0 1 0-35.84 0Z" fill="#6462F3" p-id="14302"></path><path d="M671.232 504.832h226.816" fill="#EFEFFD" p-id="14303"></path><path d="M898.048 528.384h-226.816c-12.8 0-23.552-10.24-23.552-23.552 0-12.8 10.24-23.552 23.552-23.552h226.816c12.8 0 23.552 10.24 23.552 23.552 0 12.8-10.24 23.552-23.552 23.552z" fill="#333333" p-id="14304"></path><path d="M947.2 351.232H76.8c-36.864 0-66.56-29.696-66.56-66.56V186.88c0-36.864 29.696-66.56 66.56-66.56h870.4c36.864 0 66.56 29.696 66.56 66.56v97.792c0 36.352-29.696 66.56-66.56 66.56z m-870.4-184.32c-10.752 0-19.968 8.704-19.968 19.968v97.792c0 10.752 8.704 19.968 19.968 19.968h870.4c10.752 0 19.968-8.704 19.968-19.968V186.88c0-10.752-8.704-19.968-19.968-19.968H76.8z" fill="#D7D7FF" p-id="14305"></path><path d="M134.144 235.52m-17.92 0a17.92 17.92 0 1 0 35.84 0 17.92 17.92 0 1 0-35.84 0Z" fill="#6462F3" p-id="14306"></path><path d="M188.416 235.52m-17.92 0a17.92 17.92 0 1 0 35.84 0 17.92 17.92 0 1 0-35.84 0Z" fill="#6462F3" p-id="14307"></path><path d="M242.688 235.52m-17.92 0a17.92 17.92 0 1 0 35.84 0 17.92 17.92 0 1 0-35.84 0Z" fill="#6462F3" p-id="14308"></path><path d="M671.232 235.52h226.816" fill="#EFEFFD" p-id="14309"></path><path d="M898.048 259.072h-226.816c-12.8 0-23.552-10.24-23.552-23.552 0-12.8 10.24-23.552 23.552-23.552h226.816c12.8 0 23.552 10.24 23.552 23.552 0 12.8-10.24 23.552-23.552 23.552z" fill="#333333" p-id="14310"></path></svg>