<svg width="1231pt" height="1236pt" viewBox="0 0 1231 1236" version="1.1" xmlns="http://www.w3.org/2000/svg">
  <defs>
    <linearGradient id="sGradient" x1="0%" y1="100%" x2="0%" y2="0%">
      <stop offset="0%" stop-color="#00e5ff" stop-opacity="1.0"/>
      <stop offset="50%" stop-color="#00aaff" stop-opacity="1.0"/>
      <stop offset="100%" stop-color="#0a75d4" stop-opacity="1.0"/>
    </linearGradient>
  </defs>

  <g id="s-shape">
    <path fill="url(#sGradient)" opacity="1.00" d=" M 555.40 139.57 C 622.11 134.96 688.64 147.89 751.98 168.03 C 817.87 187.85 884.91 209.31 954.40 208.63 C 1005.69 207.54 1058.73 192.49 1097.27 157.30 C 1100.04 154.29 1103.71 154.60 1100.68 158.69 C 1073.07 208.75 1042.94 257.47 1018.01 309.01 C 1006.47 330.13 996.87 356.32 971.96 364.89 C 916.41 385.74 854.16 376.94 799.90 356.11 C 740.64 333.28 691.76 291.51 643.21 251.80 C 600.48 217.16 552.68 183.33 496.60 176.54 C 480.91 176.02 464.76 174.32 449.38 178.42 C 441.95 179.92 435.29 184.04 427.65 184.66 C 388.97 209.71 375.50 261.98 385.83 305.10 C 392.39 333.59 408.39 359.47 429.24 379.76 C 470.14 422.74 525.07 447.97 579.36 469.55 C 667.18 504.07 758.86 528.80 843.95 570.13 C 901.60 598.12 957.25 635.73 992.74 690.24 C 1028.76 744.13 1035.70 815.35 1011.46 875.37 C 991.24 928.21 952.06 971.77 906.80 1004.80 C 861.01 1038.86 806.92 1059.41 752.65 1075.55 C 722.52 1083.80 691.42 1088.01 660.31 1090.34 C 621.17 1094.05 582.12 1086.23 543.01 1090.00 C 472.54 1090.50 401.98 1087.84 332.02 1078.90 C 295.66 1073.16 259.05 1066.33 224.91 1052.12 C 202.43 1042.75 180.50 1030.15 165.12 1010.85 C 155.17 998.23 150.56 980.77 156.41 965.34 C 164.49 945.11 178.26 927.91 189.32 909.30 C 205.66 882.52 222.59 855.91 234.98 826.99 C 240.15 814.68 248.97 803.42 262.09 799.11 C 285.94 791.47 311.57 795.74 335.34 801.65 C 395.61 818.38 447.45 855.58 494.80 895.20 C 542.32 936.35 587.40 981.54 643.02 1011.99 C 687.86 1037.13 740.48 1051.30 791.90 1043.81 C 807.90 1039.40 826.13 1038.71 838.84 1026.86 C 881.84 992.60 898.41 930.15 879.19 878.88 C 858.11 820.30 802.96 783.71 749.39 757.57 C 706.89 735.90 661.19 721.46 616.36 705.52 C 566.42 688.20 516.10 671.66 467.64 650.42 C 408.23 624.57 350.14 591.27 307.22 541.78 C 268.02 497.46 247.50 437.04 253.82 377.98 C 258.79 319.63 290.85 266.39 334.68 228.67 C 358.39 206.21 386.67 189.09 416.00 175.01 C 439.46 163.41 465.09 157.73 489.93 149.97 C 511.27 143.94 533.35 141.30 555.40 139.57 M 355.22 993.11 C 351.09 997.29 358.41 999.61 361.63 1000.45 C 368.91 1005.28 374.01 1012.78 382.96 1015.09 C 390.69 1021.75 402.60 1021.83 408.38 1030.62 C 410.67 1033.51 415.79 1031.76 417.46 1035.54 C 422.94 1040.05 430.97 1039.95 437.78 1039.93 C 441.54 1036.20 433.29 1035.63 431.01 1033.99 C 424.50 1026.70 413.58 1025.19 405.75 1019.26 C 399.49 1013.17 390.29 1012.09 384.31 1005.69 C 374.55 1001.79 365.64 994.47 355.22 993.11 Z" />
  </g>
</svg>