<?xml version="1.0" standalone="no"?><!DOCTYPE svg PUBLIC "-//W3C//DTD SVG 1.1//EN" "http://www.w3.org/Graphics/SVG/1.1/DTD/svg11.dtd"><svg t="1771738653126" class="icon" viewBox="0 0 1024 1024" version="1.1" xmlns="http://www.w3.org/2000/svg" p-id="15261" xmlns:xlink="http://www.w3.org/1999/xlink" width="200" height="200"><path d="M739.584 835.84V521.024a202.176 202.176 0 0 0-201.152-203.264h-39.424a202.24 202.24 0 0 0-201.152 203.264v314.816z" fill="#FF4D4F" p-id="15262"></path><path d="M883.2 899.264c0 14.4-15.488 26.048-34.56 26.048H188.736c-19.2 0-34.56-11.648-34.56-26.048 0-14.4 15.488-26.048 34.56-26.048h659.968c19.2 0 34.56 11.648 34.56 26.048z" fill="#FF4D4F" p-id="15263"></path><path d="M259.584 395.456c-8.128 8.768-18.304 12.8-22.656 8.448l-151.424-140.8c-4.352-4.096-1.344-14.464 6.848-23.232 8.128-8.768 18.304-12.8 22.656-8.448l151.424 140.8c4.352 4.096 1.344 14.464-6.848 23.232z" fill="#FF4D4F" p-id="15264"></path><path d="M764.48 395.456c8.128 8.768 18.304 12.8 22.656 8.448l151.424-140.8c4.352-4.096 1.344-14.464-6.848-23.232-8.128-8.768-18.304-12.8-22.656-8.448l-151.424 140.8c-4.352 4.096-1.344 14.464 6.848 23.232z" fill="#FF4D4F" p-id="15265"></path><path d="M630.848 279.68c11.136 4.352 21.952 3.328 24.128-2.24l75.072-192.832c2.176-5.568-5.12-13.632-16.256-17.92-11.136-4.352-21.952-3.328-24.128 2.24l-74.88 192.512c-2.176 5.568 5.12 13.632 16.256 17.92z" fill="#FF4D4F" p-id="15266"></path><path d="M435.776 279.68c-11.136 4.352-21.952 3.328-24.128-2.24L336.576 84.608c-2.176-5.568 5.12-13.632 16.256-17.92 11.136-4.352 21.952-3.328 24.128 2.24l75.072 192.512c2.176 5.568-5.12 13.632-16.256 17.92z" fill="#FF4D4F" p-id="15267"></path></svg>